<svg width="56" height="56" viewBox="0 0 56 56" fill="none" xmlns="http://www.w3.org/2000/svg">
<path d="M28 56C43.464 56 56 43.464 56 28C56 12.536 43.464 0 28 0C12.536 0 0 12.536 0 28C0 43.464 12.536 56 28 56Z" fill="white"/>
<path fill-rule="evenodd" clip-rule="evenodd" d="M33.2036 10.5798L13.7788 12.0092C12.2125 12.1448 11.6667 13.1658 11.6667 14.3899V35.6202C11.6667 36.5741 12.0069 37.3893 12.8251 38.479L17.3914 44.399C18.1414 45.3523 18.823 45.5562 20.2552 45.488L42.813 44.1268C44.721 43.9914 45.2667 43.1061 45.2667 41.6092V17.7245C45.2667 16.9508 44.9603 16.7272 44.0571 16.0683C44.0074 16.0321 43.9559 15.9945 43.9025 15.9554L37.7019 11.6006C36.2027 10.5123 35.5889 10.3754 33.2036 10.5798ZM20.7667 17.3328C18.925 17.457 18.5065 17.4853 17.4606 16.6363L14.801 14.5269C14.5297 14.2541 14.6658 13.9139 15.3468 13.8464L34.0215 12.4853C35.5887 12.3489 36.4063 12.8942 37.02 13.3703L40.223 15.6841C40.3594 15.7518 40.6996 16.1596 40.2905 16.1596L21.0045 17.3168L20.7667 17.3328ZM18.6186 41.4047V21.1275C18.6186 20.2431 18.8912 19.8345 19.7086 19.7658L41.858 18.4734C42.6092 18.4054 42.9494 18.882 42.9494 19.7658V39.907C42.9494 40.7922 42.8128 41.5418 41.5855 41.6092L20.3902 42.8347C19.1635 42.9021 18.6186 42.4945 18.6186 41.4047ZM39.5426 22.2152C39.6784 22.8282 39.5426 23.4407 38.928 23.5096L37.9067 23.7129V38.6829C37.02 39.1591 36.2024 39.4313 35.5211 39.4313C34.4302 39.4313 34.157 39.0908 33.3399 38.0707L26.6599 27.5916V37.7304L28.7737 38.2071C28.7737 38.2071 28.7737 39.4313 27.0683 39.4313L22.3668 39.7038C22.2302 39.4313 22.3668 38.7514 22.8437 38.6152L24.0706 38.2754V24.8701L22.3671 24.7337C22.2305 24.1207 22.5708 23.2368 23.5256 23.1682L28.5692 22.8285L35.5211 33.4439V24.0532L33.7486 23.8499C33.6126 23.1005 34.157 22.5563 34.8386 22.4888L39.5426 22.2152Z" fill="black"/>
</svg>
