<svg width="56" height="56" viewBox="0 0 56 56" fill="none" xmlns="http://www.w3.org/2000/svg">
<g clip-path="url(#clip0_5_62)">
<rect width="56" height="56" fill="#1157FF"/>
<path d="M20.192 16.3333C21.2696 16.3333 22.2643 16.4157 23.1761 16.6631C24.0879 16.828 24.8339 17.1578 25.497 17.57C26.1601 17.9823 26.6575 18.5594 26.989 19.3015C27.3206 20.0435 27.4864 20.9504 27.4864 21.9398C27.4864 23.0941 27.2377 24.0835 26.6575 24.8256C26.1601 25.5676 25.3312 26.2272 24.3365 26.7219C25.7457 27.1342 26.8233 27.8762 27.4864 28.8656C28.1495 29.855 28.564 31.0918 28.564 32.4934C28.564 33.6477 28.3153 34.6371 27.9008 35.4616C27.4864 36.2861 26.8233 37.0282 26.0772 37.5229C25.3312 38.0176 24.4194 38.4298 23.4247 38.6772C22.43 38.9245 21.4354 39.0894 20.4407 39.0894H9.33331V16.3333H20.192ZM19.5289 25.5676C20.4407 25.5676 21.1867 25.3203 21.7669 24.908C22.3472 24.4958 22.5958 23.7537 22.5958 22.8468C22.5958 22.3521 22.5129 21.8574 22.3472 21.5276C22.1814 21.1978 21.9327 20.9504 21.6011 20.7031C21.2696 20.5382 20.938 20.3733 20.5236 20.2908C20.1091 20.2084 19.6947 20.2084 19.1973 20.2084H14.3896V25.5676H19.5289ZM19.7775 35.2967C20.2749 35.2967 20.7722 35.2143 21.1867 35.1318C21.6011 35.0494 22.0156 34.8845 22.3472 34.6371C22.6787 34.3898 22.9274 34.1424 23.1761 33.7302C23.3418 33.3179 23.5076 32.8232 23.5076 32.2461C23.5076 31.0918 23.1761 30.2673 22.5129 29.6901C21.8498 29.1954 20.938 28.9481 19.8604 28.9481H14.3896V35.2967H19.7775ZM35.7754 35.2143C36.4386 35.8739 37.4333 36.2037 38.7595 36.2037C39.6713 36.2037 40.5002 35.9563 41.1633 35.5441C41.8265 35.0494 42.2409 34.5547 42.4067 34.06H46.4683C45.8052 36.0388 44.8105 37.4404 43.4843 38.3474C42.158 39.1719 40.5831 39.6666 38.6766 39.6666C37.3504 39.6666 36.1899 39.4192 35.1123 39.007C34.0347 38.5947 33.2058 38.0176 32.4598 37.1931C31.7138 36.451 31.1336 35.5441 30.802 34.4722C30.3876 33.4004 30.2218 32.2461 30.2218 30.9269C30.2218 29.6901 30.3876 28.5358 30.802 27.464C31.2165 26.3921 31.7967 25.4852 32.5427 24.6607C33.2887 23.9186 34.2005 23.259 35.1952 22.8468C36.2728 22.4345 37.3504 22.1872 38.6766 22.1872C40.0858 22.1872 41.3291 22.4345 42.4067 23.0117C43.4843 23.5888 44.3132 24.2484 44.9763 25.2378C45.6394 26.1448 46.1368 27.2166 46.4683 28.3709C46.6341 29.5252 46.717 30.6795 46.6341 31.9987H34.615C34.615 33.3179 35.1123 34.5547 35.7754 35.2143ZM40.9976 26.557C40.4173 25.9799 39.5055 25.6501 38.4279 25.6501C37.6819 25.6501 37.1017 25.815 36.6044 26.0623C36.107 26.3097 35.7754 26.6395 35.4439 26.9693C35.1123 27.2991 34.9465 27.7113 34.8636 28.1236C34.7808 28.5358 34.6979 28.8656 34.6979 29.1954H42.158C41.9922 27.9587 41.5778 27.1342 40.9976 26.557ZM33.7032 17.8998H42.9869V20.1259H33.7032V17.8998Z" fill="white"/>
</g>
<rect x="0.5" y="0.5" width="55" height="55" stroke="black" stroke-opacity="0.1"/>
<defs>
<clipPath id="clip0_5_62">
<rect width="56" height="56" fill="white"/>
</clipPath>
</defs>
</svg>
