<svg width="56" height="56" viewBox="0 0 56 56" fill="none" xmlns="http://www.w3.org/2000/svg">
<g clip-path="url(#clip0_5_68)">
<path d="M56 0H0V56H56V0Z" fill="#E60023"/>
<path d="M28.115 9.33325C17.7851 9.33325 9.33331 17.785 9.33331 28.1149C9.33331 35.8624 14.0287 42.436 20.6023 45.2532C20.6023 43.8446 20.6023 42.436 20.8371 41.0273C21.3066 39.3839 23.1848 30.6974 23.1848 30.6974C23.1848 30.6974 22.4805 29.5236 22.4805 27.6454C22.4805 24.8281 24.1239 22.7152 26.0021 22.7152C27.6455 22.7152 28.5845 23.889 28.5845 25.5324C28.5845 27.1758 27.4107 29.7583 26.9411 32.106C26.4716 33.9842 27.8802 35.6276 29.9932 35.6276C33.5147 35.6276 35.8624 31.1669 35.8624 25.5324C35.8624 21.3066 33.0452 18.2545 28.115 18.2545C22.4805 18.2545 18.9589 22.4804 18.9589 27.1758C18.9589 28.8192 19.4285 29.9931 20.1328 30.9322C20.3676 31.4017 20.6023 31.4017 20.3675 31.8713C20.3675 32.106 20.1328 33.0451 19.898 33.2799C19.6632 33.7494 19.4285 33.9842 18.9589 33.7494C16.3765 32.5756 15.2026 29.7583 15.2026 26.4715C15.2026 21.0718 19.6632 14.733 28.5845 14.733C35.8624 14.733 40.5578 19.8979 40.5578 25.5324C40.5578 32.8103 36.5667 38.4448 30.4627 38.4448C28.3498 38.4448 26.4716 37.271 25.7673 36.0971C25.7673 36.0971 24.5934 40.323 24.3586 41.2621C23.8891 42.6707 23.1848 44.0793 22.4805 45.2532C24.1239 45.7227 26.002 45.9575 27.8802 45.9575C38.2101 45.9575 46.6619 37.5058 46.6619 27.1758C46.8966 17.785 38.4449 9.33325 28.115 9.33325Z" fill="white"/>
</g>
<rect x="0.5" y="0.5" width="55" height="55" stroke="black" stroke-opacity="0.1"/>
<defs>
<clipPath id="clip0_5_68">
<rect width="56" height="56" fill="white"/>
</clipPath>
</defs>
</svg>
