<svg width="56" height="56" viewBox="0 0 56 56" fill="none" xmlns="http://www.w3.org/2000/svg">
<g clip-path="url(#clip0_5_32)">
<path d="M56 0H0V55.9068H56V0Z" fill="white"/>
<mask id="mask0_5_32" style="mask-type:luminance" maskUnits="userSpaceOnUse" x="11" y="25" width="34" height="6">
<path d="M44.7255 25.1581H11.1814V30.6571H44.7255V25.1581Z" fill="white"/>
</mask>
<g mask="url(#mask0_5_32)">
<path d="M12.1034 26.3605V27.7829H14.1692V28.5858H12.1034V30.5655H11.1667V25.543H14.4551V26.3605H12.1034ZM19.4152 26.7418V27.4457H19.4391C19.5729 27.0259 19.9468 26.6666 20.5993 26.6666C21.3179 26.6666 21.8128 27.101 21.8128 27.9772V30.5617H20.9073V28.2045C20.9073 27.7023 20.6819 27.4548 20.2621 27.4548C19.7764 27.4548 19.4317 27.9039 19.4317 28.5784V30.5636H18.5152V26.7418H19.4152ZM31.5699 27.979V30.5636H30.6626V28.2026C30.6626 27.7023 30.4372 27.453 30.0174 27.453C29.5317 27.453 29.187 27.9039 29.187 28.5784V30.5636H28.2724V25.169H29.187V26.7418C29.187 26.9801 29.1797 27.2128 29.1724 27.4457H29.187C29.33 27.0259 29.7039 26.6666 30.3638 26.6666C31.0823 26.6666 31.5699 27.101 31.5699 27.979ZM36.7391 26.7418V27.5886H36.7611C36.9114 27.0644 37.2706 26.6905 37.8169 26.6905C37.9525 26.6905 38.0643 26.6978 38.1926 26.7271V27.6564C38.0465 27.6153 37.8953 27.595 37.7435 27.596C37.2339 27.596 36.7611 27.957 36.7611 28.8405V30.5636H35.8463V26.7418H36.7391ZM16.2166 26.6666C17.2578 26.6666 18.0368 27.3558 18.0368 28.6371C18.0368 29.9111 17.2212 30.6388 16.2093 30.6388C15.159 30.6388 14.3818 29.9495 14.3818 28.6664C14.3818 27.3852 15.1883 26.6685 16.2148 26.6685L16.2166 26.6666ZM16.2166 27.4182C15.685 27.4182 15.3093 27.8654 15.3093 28.6536C15.3093 29.4473 15.685 29.8891 16.2075 29.8891C16.7409 29.8891 17.1075 29.44 17.1075 28.6536C17.1075 27.8581 16.7409 27.4163 16.2166 27.4163V27.4182ZM22.5919 27.4915H22.0915V26.7803H22.2784C22.5772 26.7803 22.6523 26.6831 22.6523 26.2781V25.5448H23.4992V26.7436H24.4523V27.4933H23.4992V29.3062C23.4992 29.7405 23.6422 29.8744 23.9702 29.8744C24.137 29.8759 24.3017 29.8376 24.4506 29.7625V30.5122C24.2251 30.6039 23.9831 30.6516 23.7393 30.6461C22.9218 30.6461 22.5919 30.3088 22.5919 29.4619V27.4915ZM25.5742 29.3868C25.5888 29.7699 25.8308 29.9642 26.2781 29.9642C26.7143 29.9642 26.9526 29.7845 26.9526 29.5444C26.9526 29.2145 26.7363 29.1614 26.212 29.0128C25.3432 28.7801 24.7512 28.6298 24.7512 27.8141C24.7512 27.1102 25.3946 26.6666 26.2633 26.6666C27.2385 26.6666 27.8141 27.1176 27.7775 27.8966H26.9232C26.9232 27.53 26.6905 27.3339 26.2781 27.3339C25.9041 27.3339 25.6419 27.4988 25.6419 27.7389C25.6419 28.0616 25.8748 28.1367 26.3532 28.2559C27.2679 28.474 27.838 28.6683 27.838 29.44C27.838 30.1658 27.2073 30.6388 26.2487 30.6388C25.2974 30.6388 24.6907 30.2263 24.6907 29.3868H25.5742ZM34.2663 28.3457V28.0688C34.2663 27.596 34.0647 27.365 33.6211 27.365C33.2325 27.365 32.9557 27.574 32.9557 27.9498C32.9557 28.001 32.9557 28.0451 32.9704 28.122H32.1161C32.1089 28.0542 32.1089 27.9937 32.1089 27.9405C32.1089 27.1836 32.7449 26.6666 33.6523 26.6666C34.6421 26.6666 35.1572 27.1836 35.1572 28.0908V29.3868C35.1572 29.7773 35.2103 29.8891 35.368 29.8891C35.4229 29.8891 35.4779 29.8744 35.5256 29.8451V30.5122C35.4523 30.5636 35.2323 30.6241 35.038 30.6241C34.4918 30.6241 34.3414 30.4371 34.2974 30.0009H34.2828C34.0867 30.3767 33.7054 30.6388 33.1207 30.6388C32.3801 30.6388 31.9512 30.2649 31.9512 29.5976C31.9512 28.5712 32.9924 28.3603 34.2663 28.3457ZM34.2663 28.9139C33.3443 28.9377 32.8641 29.0734 32.8641 29.5078C32.8641 29.7993 33.029 29.9569 33.4194 29.9569C33.6082 29.9551 33.7916 29.894 33.9436 29.7821C34.0956 29.6703 34.2085 29.5134 34.2663 29.3336V28.9157V28.9139ZM41.5122 28.8553H39.001C39.0175 29.5444 39.362 29.8817 39.8716 29.8817C40.3794 29.8817 40.6048 29.583 40.6507 29.2457H41.4902C41.4444 29.9789 40.8597 30.6388 39.8644 30.6388C38.7847 30.6388 38.0735 29.9422 38.0735 28.6683C38.0735 27.3852 38.8617 26.6666 39.8423 26.6666C40.8542 26.6666 41.5287 27.3558 41.5287 28.5326C41.5287 28.6224 41.5195 28.7434 41.5122 28.8553ZM39.0175 28.2705H40.6507C40.6048 27.6564 40.284 27.3797 39.8405 27.3797C39.4226 27.3797 39.0834 27.6711 39.0156 28.2705H39.0175ZM41.2427 25.4861V25.1562H42.5625V25.4861H42.0951V26.7583H41.712V25.488H41.2427V25.4861ZM43.2425 25.1562L43.7118 26.3183H43.7265L44.1994 25.1581H44.698V26.7601H44.3442V25.6933H44.335L43.8988 26.7583H43.5413L43.1106 25.697H43.096V26.7601H42.7422V25.1544H43.2425V25.1562Z" fill="black"/>
</g>
</g>
<defs>
<clipPath id="clip0_5_32">
<rect width="56" height="55.9068" fill="white"/>
</clipPath>
</defs>
</svg>
