<svg width="56" height="44" viewBox="0 0 56 44" fill="none" xmlns="http://www.w3.org/2000/svg">
<path d="M0 42.5731L26.9812 0.220947L41.4433 9.43448L20.3315 42.5731H0Z" fill="#FBBC04"/>
<path d="M26.4109 0H43.0192V42.573H26.4109V0Z" fill="#1A73E8"/>
<path d="M9.20035 17.1721C13.7469 17.1721 17.4325 13.4864 17.4325 8.93994C17.4325 4.39343 13.7469 0.707764 9.20035 0.707764C4.65384 0.707764 0.96817 4.39343 0.96817 8.93994C0.96817 13.4864 4.65384 17.1721 9.20035 17.1721Z" fill="#EA4335"/>
<path d="M54.8482 30.7441C54.8482 33.8813 53.6019 36.8901 51.3836 39.1084C49.1652 41.3268 46.1564 42.5731 43.0192 42.5731V18.9161C46.1563 18.9161 49.1648 20.1623 51.3832 22.3804C53.6015 24.5985 54.8479 27.607 54.8482 30.7441Z" fill="#34A853"/>
<path d="M43.0192 18.9161V42.5731C39.9018 42.543 36.9224 41.2836 34.7286 39.0686C32.5349 36.8536 31.3042 33.8621 31.3042 30.7446C31.3042 27.6271 32.5349 24.6356 34.7286 22.4206C36.9224 20.2056 39.9018 18.9462 43.0192 18.9161Z" fill="#0D652D"/>
<path d="M52.1228 9.8125C52.1225 12.2268 51.1633 14.5422 49.4561 16.2494C47.7489 17.9566 45.4335 18.9158 43.0192 18.9161V0.707764C45.4337 0.708055 47.7493 1.66743 49.4565 3.37487C51.1637 5.0823 52.1228 7.39796 52.1228 9.8125Z" fill="#1A73E8"/>
<path d="M43.0192 0.707764V18.9161C40.6219 18.8898 38.3318 17.919 36.6459 16.2145C34.9601 14.51 34.0145 12.2093 34.0145 9.81195C34.0145 7.41455 34.9601 5.1139 36.6459 3.40939C38.3318 1.70489 40.6219 0.734102 43.0192 0.707764Z" fill="#174EA6"/>
</svg>
