<svg width="40" height="40" viewBox="0 0 40 40" fill="none" xmlns="http://www.w3.org/2000/svg">
<path d="M0 20C0 8.9543 8.9543 0 20 0C31.0457 0 40 8.9543 40 20C40 31.0457 31.0457 40 20 40C8.9543 40 0 31.0457 0 20Z" fill="#1769FF"/>
<path fill-rule="evenodd" clip-rule="evenodd" d="M19.7253 16.7043C19.7253 15.9333 19.5234 15.2726 19.1207 14.7194C18.4497 13.8186 17.312 13.357 15.704 13.3335H9.33333V26.3389H15.2738C15.9436 26.3389 16.5632 26.282 17.1364 26.1644C17.7096 26.0456 18.2051 25.8291 18.6253 25.5111C18.9991 25.2339 19.3102 24.8924 19.5585 24.4877C19.9511 23.8764 20.1468 23.1847 20.1468 22.4138C20.1468 21.6664 19.9749 21.0303 19.6338 20.5081C19.2888 19.9847 18.7821 19.6023 18.1098 19.3598C18.5525 19.1371 18.8874 18.8896 19.1157 18.6198C19.5234 18.1372 19.7253 17.4975 19.7253 16.7043ZM28.6147 15.5584H22.9652V13.9398H28.6147V15.5584ZM23.6237 20.5787C23.7166 19.9525 23.9436 19.4563 24.3036 19.09C24.6636 18.7238 25.1728 18.5406 25.8251 18.5406C26.4271 18.5406 26.9301 18.7126 27.339 19.0579C27.7429 19.4056 27.9712 19.9104 28.0176 20.5787H23.6237ZM28.1167 16.9171C28.7978 17.2166 29.3585 17.6917 29.8 18.3401C30.2026 18.9118 30.461 19.5751 30.5789 20.3287C30.6479 20.7692 30.6755 21.4077 30.6642 22.2381H23.561C23.6037 23.202 23.9398 23.8789 24.582 24.2662C24.9709 24.5075 25.4387 24.6288 25.9881 24.6288C26.5664 24.6288 27.0392 24.4815 27.4017 24.1883C27.6012 24.0286 27.7768 23.8084 27.9273 23.5262H30.53C30.461 24.0954 30.1449 24.6758 29.5855 25.2648C28.7125 26.1991 27.4895 26.6668 25.9179 26.6668C24.6197 26.6668 23.4745 26.2733 22.4848 25.4838C21.4902 24.6956 20.996 23.4111 20.996 21.6342C20.996 19.9674 21.4437 18.6891 22.3381 17.7994C23.2349 16.9122 24.3951 16.4654 25.8238 16.4654C26.673 16.4654 27.4369 16.6164 28.1167 16.9171ZM11.9611 24.0818V20.6133H15.2073C15.7717 20.6183 16.212 20.6925 16.5256 20.8336C17.0862 21.0872 17.3647 21.5513 17.3647 22.2294C17.3647 23.0288 17.0762 23.5683 16.498 23.8529C16.1806 24.0051 15.7341 24.0818 15.1621 24.0818H11.9611ZM11.9611 15.5918V18.4614H15.1671C15.7379 18.4614 16.2032 18.3538 16.5619 18.1384C16.9182 17.9231 17.0975 17.542 17.0975 16.9975C17.0975 16.39 16.8617 15.9903 16.3901 15.7947C15.9812 15.6599 15.4619 15.5918 14.831 15.5918H11.9611Z" fill="white"/>
</svg>
