<svg width="40" height="40" viewBox="0 0 40 40" fill="none" xmlns="http://www.w3.org/2000/svg">
<path d="M20.0002 0C8.95583 0 0 9.18079 0 20.5063C0 29.5666 5.73066 37.2532 13.6773 39.9648C14.6769 40.1546 15.0438 39.5199 15.0438 38.9783C15.0438 38.4893 15.0253 36.8739 15.0167 35.1604C9.45262 36.4009 8.27853 32.7409 8.27853 32.7409C7.36874 30.3707 6.05788 29.7404 6.05788 29.7404C4.24326 28.4677 6.19466 28.4939 6.19466 28.4939C8.20302 28.6385 9.26053 30.607 9.26053 30.607C11.0443 33.742 13.9393 32.8357 15.0806 32.3117C15.2601 30.9864 15.7784 30.0817 16.3504 29.5696C11.9081 29.0511 7.23825 27.2928 7.23825 19.4353C7.23825 17.1965 8.01954 15.3672 9.29894 13.9311C9.09129 13.4146 8.40671 11.3289 9.49269 8.50435C9.49269 8.50435 11.1722 7.95322 14.9942 10.6063C16.5895 10.152 18.3005 9.92412 20.0002 9.91631C21.6999 9.92412 23.4121 10.152 25.0105 10.6063C28.8278 7.95322 30.505 8.50435 30.505 8.50435C31.5936 11.3289 30.9087 13.4146 30.7011 13.9311C31.9834 15.3672 32.7594 17.1965 32.7594 19.4353C32.7594 27.3115 28.0806 29.0457 23.6271 29.5533C24.3444 30.1897 24.9836 31.4376 24.9836 33.3508C24.9836 36.0946 24.9605 38.3029 24.9605 38.9783C24.9605 39.524 25.3205 40.1634 26.3343 39.962C34.2766 37.2475 40 29.5635 40 20.5063C40 9.18079 31.0455 0 20.0002 0Z" fill="white"/>
<path d="M7.63405 29.3018C7.59008 29.4027 7.43405 29.4329 7.2919 29.3637C7.1471 29.2974 7.06578 29.1599 7.11272 29.0587C7.1557 28.9548 7.31206 28.9259 7.45652 28.9955C7.60165 29.0617 7.68429 29.2006 7.63405 29.3018Z" fill="#161514"/>
<path d="M8.44264 30.2192C8.34743 30.309 8.16132 30.2673 8.03504 30.1254C7.90446 29.9839 7.88 29.7946 7.97653 29.7035C8.07471 29.6137 8.2552 29.6557 8.38611 29.7973C8.51669 29.9405 8.54215 30.1285 8.44264 30.2192Z" fill="#161514"/>
<path d="M9.22976 31.3884C9.10744 31.4748 8.90744 31.3937 8.78381 31.2132C8.66149 31.0326 8.66149 30.8161 8.78645 30.7294C8.91042 30.6426 9.10744 30.7206 9.23273 30.8998C9.35471 31.0834 9.35471 31.2999 9.22976 31.3884Z" fill="#161514"/>
<path d="M10.3081 32.5183C10.1987 32.641 9.96562 32.608 9.79504 32.4406C9.6205 32.2769 9.5719 32.0445 9.68165 31.9218C9.7924 31.7987 10.0268 31.8334 10.1987 31.9995C10.3719 32.1629 10.4248 32.3969 10.3081 32.5183Z" fill="#161514"/>
<path d="M11.7957 33.1744C11.7474 33.3335 11.523 33.4058 11.2969 33.3382C11.0711 33.2686 10.9233 33.0823 10.9689 32.9216C11.0159 32.7615 11.2413 32.6862 11.4691 32.7585C11.6945 32.8278 11.8426 33.0127 11.7957 33.1744Z" fill="#161514"/>
<path d="M13.4294 33.2958C13.435 33.4633 13.2433 33.6022 13.006 33.6052C12.7673 33.6106 12.5742 33.4751 12.5716 33.3103C12.5716 33.1412 12.759 33.0037 12.9977 32.9996C13.235 32.9949 13.4294 33.1294 13.4294 33.2958Z" fill="#161514"/>
<path d="M14.9498 33.0329C14.9782 33.1963 14.8132 33.3641 14.5775 33.4088C14.3458 33.4519 14.1312 33.351 14.1018 33.1889C14.0731 33.0215 14.241 32.8537 14.4724 32.8104C14.7084 32.7687 14.9197 32.8668 14.9498 33.0329Z" fill="#161514"/>
</svg>
