<svg width="40" height="40" viewBox="0 0 40 40" fill="none" xmlns="http://www.w3.org/2000/svg">
<path d="M2.72727 35.0071H9.09091V19.5526L0 12.7344V32.2798C0 33.7866 1.22045 35.0071 2.72727 35.0071Z" fill="#4285F4"/>
<path d="M30.9091 35.0071H37.2727C38.7795 35.0071 40 33.7866 40 32.2798V12.7344L30.9091 19.5526V35.0071Z" fill="#34A853"/>
<path d="M30.9091 7.73462V19.5528L40 12.7346V9.09826C40 5.7278 36.1523 3.8028 33.4545 5.82553L30.9091 7.73462Z" fill="#FBBC04"/>
<path fill-rule="evenodd" clip-rule="evenodd" d="M9.09091 19.5526V7.73438L20 15.9162L30.9091 7.73438V19.5526L20 27.7344L9.09091 19.5526Z" fill="#EA4335"/>
<path d="M0 9.09826V12.7346L9.09091 19.5528V7.73462L6.54545 5.82553C3.84773 3.8028 0 5.7278 0 9.09826Z" fill="#C5221F"/>
</svg>
