<svg width="40" height="44" viewBox="0 0 40 44" fill="none" xmlns="http://www.w3.org/2000/svg">
<path d="M0 6.66667C0 2.98477 3.04329 0 6.79739 0H33.2026C36.9567 0 40 2.98477 40 6.66667V33.3333C40 37.0152 36.9567 40 33.2026 40H6.79739C3.0433 40 0 37.0152 0 33.3333V6.66667Z" fill="#0077B5"/>
<path d="M28.1564 34.3772H34.1797V22.4628C34.1797 16.5786 30.5477 14.5716 27.1868 14.5716C24.079 14.5716 21.9678 16.5962 21.385 17.7822V15.113H15.5923V34.3772H21.6156V23.9328C21.6156 21.148 23.3676 19.7936 25.1549 19.7936C26.8454 19.7936 28.1564 20.7511 28.1564 23.8555V34.3772Z" fill="white"/>
<path d="M5.48972 8.94813C5.48972 10.9593 7.04443 12.429 8.96223 12.429C10.8803 12.429 12.435 10.9593 12.435 8.94813C12.435 6.93723 10.8803 5.46582 8.96223 5.46582C7.04443 5.46582 5.48972 6.93723 5.48972 8.94813Z" fill="white"/>
<path d="M5.95074 34.3624H11.9737V15.0982H5.95074V34.3624Z" fill="white"/>
</svg>
