<svg width="40" height="40" viewBox="0 0 40 40" fill="none" xmlns="http://www.w3.org/2000/svg">
<path d="M2.95431 36.7384L5.33278 28.0541C3.86582 25.5126 3.09403 22.6293 3.09497 19.6756C3.09873 10.4348 10.6188 2.91699 19.8598 2.91699C24.3442 2.91918 28.5532 4.66435 31.7189 7.83219C34.8836 11 36.6262 15.2106 36.6247 19.6891C36.6206 28.9292 29.0993 36.4483 19.8598 36.4483C19.8591 36.4483 19.8605 36.4483 19.8598 36.4483H19.8526C17.0471 36.4471 14.2903 35.7434 11.8415 34.408L2.95431 36.7384Z" fill="white"/>
<path d="M19.8652 5.74805C12.1791 5.74805 5.92842 11.9964 5.9256 19.6766C5.92446 22.3085 6.661 24.8719 8.05574 27.0899L8.38732 27.6168L6.97931 32.7568L12.2532 31.374L12.7624 31.6757C14.9013 32.9452 17.3536 33.6165 19.8545 33.6177H19.8598C27.54 33.6177 33.7906 27.3687 33.7937 19.6879C33.7951 15.9659 32.3472 12.4658 29.7163 9.83301C27.0854 7.20021 23.5872 5.74962 19.8652 5.74805Z" fill="url(#paint0_linear_5_303)"/>
<path fill-rule="evenodd" clip-rule="evenodd" d="M15.67 12.669C15.356 11.9717 15.0256 11.9575 14.7274 11.9453C14.4831 11.9349 14.2036 11.9356 13.9245 11.9356C13.645 11.9356 13.1913 12.0404 12.8076 12.4596C12.4236 12.8788 11.3413 13.892 11.3413 15.9531C11.3413 18.0141 12.8425 20.0054 13.0516 20.2852C13.261 20.5646 15.9494 24.9291 20.2074 26.608C23.7458 28.0034 24.4657 27.7258 25.2341 27.6561C26.0021 27.5864 27.7124 26.6428 28.0612 25.6648C28.4104 24.6867 28.4104 23.8486 28.3058 23.6734C28.201 23.4985 27.9218 23.394 27.5026 23.1845C27.0838 22.9751 25.0243 21.9616 24.6403 21.8218C24.2563 21.6821 23.9772 21.6124 23.6977 22.0316C23.4186 22.4508 22.6163 23.394 22.3717 23.6734C22.1275 23.9532 21.8832 23.988 21.464 23.7786C21.0451 23.5686 19.6959 23.1268 18.0955 21.6997C16.8502 20.5894 16.0097 19.2182 15.7651 18.7991C15.5208 18.3799 15.739 18.1532 15.9491 17.9444C16.1372 17.7566 16.368 17.4552 16.5777 17.2106C16.7865 16.966 16.8565 16.7914 16.9959 16.5123C17.1357 16.2325 17.066 15.9879 16.9611 15.7785C16.8565 15.569 16.0423 13.4973 15.67 12.669Z" fill="white"/>
<defs>
<linearGradient id="paint0_linear_5_303" x1="19.576" y1="7.42053" x2="19.7173" y2="31.2368" gradientUnits="userSpaceOnUse">
<stop stop-color="#57D163"/>
<stop offset="1" stop-color="#23B33A"/>
</linearGradient>
</defs>
</svg>
